<?xml version="1.0"?>
<svg version="1.1" xmlns="http://www.w3.org/2000/svg" width="235px" height="50px" style="">
<path fill="white" d="M4.2,34.38l0.56,2.94s1.26,0.7,3.08,0.7c2.044,0,4.284-1.008,4.284-2.996c0-4.312-10.108-2.52-10.108-9.212c0-3.92,3.136-5.572,6.636-5.572c2.66,0,5.908,1.12,5.908,1.12l-0.14,4.76l-1.82,0l-0.952-2.996s-1.428-0.504-2.968-0.504c-2.52,0-3.724,1.316-3.724,2.716c0,4.256,10.08,2.632,10.08,8.932c0,4.2-3.388,6.132-7.308,6.132c-2.94,0-5.768-1.12-5.768-1.12l0-4.9l2.24,0z M20.8768,29.62l-0.14-3.5s3.08-1.12,5.46-1.12c3.248,0,5.18,1.12,5.18,4.34l0,8.54l2.24,0.56l0,1.54l-4.34,0.14l-0.588-1.96c-0.952,0.952-2.632,2.24-4.592,2.24c-2.66,0-4.2-1.54-4.2-4.2c0-3.22,2.52-4.34,6.44-4.34l2.24,0l0-2.24c0-1.68-0.98-2.52-2.66-2.52s-2.828,0.42-2.828,0.42l-0.392,2.1l-1.82,0z M28.5768,33.68l-1.96,0c-2.8,0-3.864,0.7-3.864,2.38c0,1.26,0.784,2.1,2.044,2.1c2.1,0,3.78-2.24,3.78-2.24l0-2.24z M42.1176,25.28l0.252,1.988c0.672-0.588,2.884-2.268,5.208-2.268c3.08,0,4.48,1.96,4.48,5.04l0,7.84l2.1,0.7l0,1.54l-6.72,0l0-1.54l1.82-0.7l0-7.56c0-1.96-0.7-2.94-2.52-2.94c-2.38,0-4.06,2.24-4.06,2.24l0,8.26l1.82,0.7l0,1.54l-7,0l0-1.54l2.38-0.7l0-10.36l-2.38-0.56l0-1.54z M67.1384,25.42l0,2.1l-4.06,0l0,8.988c0,1.288,0.616,1.708,1.4,1.708c0.672,0,1.456-0.308,2.184-0.7l0.756,1.484c-1.26,0.924-2.52,1.4-3.92,1.4c-1.68,0-3.22-0.924-3.22-4.06l0-8.82l-2.8,0l0-1.82l2.8-0.28l0-3.528l2.8-0.56l0,4.088l4.06,0z M72.8392,20.66c0-1.26,0.84-1.96,1.82-1.96c1.12,0,1.82,0.56,1.82,1.96c0,1.26-0.98,1.96-1.82,1.96c-1.12,0-1.82-0.7-1.82-1.96z M78.2992,38.58l0,1.54l-7.28,0l0-1.54l2.38-0.7l0-10.36l-2.38-0.56l0-1.54l5.18-0.14l0,12.6z M83.44,29.62l-0.14-3.5s3.08-1.12,5.46-1.12c3.248,0,5.18,1.12,5.18,4.34l0,8.54l2.24,0.56l0,1.54l-4.34,0.14l-0.588-1.96c-0.952,0.952-2.632,2.24-4.592,2.24c-2.66,0-4.2-1.54-4.2-4.2c0-3.22,2.52-4.34,6.44-4.34l2.24,0l0-2.24c0-1.68-0.98-2.52-2.66-2.52s-2.828,0.42-2.828,0.42l-0.392,2.1l-1.82,0z M91.14,33.68l-1.96,0c-2.8,0-3.864,0.7-3.864,2.38c0,1.26,0.784,2.1,2.044,2.1c2.1,0,3.78-2.24,3.78-2.24l0-2.24z M114.6208,26.96l-2.716,0.392s0.756,1.008,0.756,2.828c0,3.78-2.52,5.46-6.16,5.46c-1.26,0-2.1-0.252-2.1-0.252l-0.14,2.632l4.34,0c3.64,0,5.6,1.4,5.6,4.06c0,3.08-2.38,5.04-7.28,5.04c-3.92,0-6.72-0.98-6.72-4.06c0-2.52,2.94-3.5,2.94-3.5s-1.68-0.14-1.68-1.596c0-0.924,1.456-3.164,1.456-3.164s-2.156-0.98-2.156-4.34c0-3.64,2.52-5.46,6.16-5.46c1.82,0,2.8,0.532,2.8,0.532l4.9-0.112l0,1.54z M106.7808,26.96c-2.24,0-3.22,1.12-3.22,3.36c0,1.96,0.98,3.36,3.08,3.36c2.24,0,3.22-0.98,3.22-3.36c0-2.1-0.98-3.36-3.08-3.36z M107.9008,40.12l-3.08,0s-1.82,0.84-1.82,2.52c0,1.96,1.68,2.38,4.34,2.38c2.8,0,4.2-0.84,4.2-2.66s-1.4-2.24-3.64-2.24z M125.5016,25c4.2,0,6.58,2.94,6.58,7.42c0,4.76-2.8,7.98-7,7.98s-6.72-2.52-6.72-7.56c0-4.76,2.94-7.84,7.14-7.84z M125.3616,27.24c-2.8,0-4.06,1.82-4.06,5.46c0,3.36,1.12,5.46,3.92,5.46s3.92-1.96,3.92-5.6c0-3.08-0.98-5.32-3.78-5.32z M147.1232,40.12l0-1.68l2.8-0.56l0-15.12l-3.64,0l-0.7,2.8l-1.82,0l0-5.04l15.26,0l0,5.04l-1.82,0l-0.7-2.8l-3.64,0l0,15.12l2.8,0.56l0,1.68l-8.54,0z M169.484,25c4.2,0,6.58,2.94,6.58,7.42c0,4.76-2.8,7.98-7,7.98s-6.72-2.52-6.72-7.56c0-4.76,2.94-7.84,7.14-7.84z M169.344,27.24c-2.8,0-4.06,1.82-4.06,5.46c0,3.36,1.12,5.46,3.92,5.46s3.92-1.96,3.92-5.6c0-3.08-0.98-5.32-3.78-5.32z M196.6048,38.44l0,1.54l-4.62,0.14l-0.28-1.96c-0.672,0.588-2.884,2.24-5.18,2.24c-3.08,0-4.48-1.932-4.48-5.012l0-7.868l-2.38-0.56l0-1.54l5.18-0.14l0,9.828c0,1.96,0.7,2.912,2.52,2.912c2.38,0,4.06-2.212,4.06-2.212l0-8.288l-2.38-0.56l0-1.54l5.18-0.14l0,12.6z M204.9656,25.28l0.252,2.044c0.7-0.784,2.324-2.324,4.228-2.324c1.4,0,2.52,0.42,2.52,0.42l-0.14,4.06l-1.82,0l-0.42-2.1c-2.1,0-3.444,1.372-4.06,2.184l0,8.316l2.8,0.7l0,1.54l-7.98,0l0-1.54l2.38-0.7l0-10.36l-2.38-0.56l0-1.54z M219.9064,25.28l0.252,1.988c0.672-0.588,2.884-2.268,5.208-2.268c3.08,0,4.48,1.96,4.48,5.04l0,7.84l2.1,0.7l0,1.54l-6.72,0l0-1.54l1.82-0.7l0-7.56c0-1.96-0.7-2.94-2.52-2.94c-2.38,0-4.06,2.24-4.06,2.24l0,8.26l1.82,0.7l0,1.54l-7,0l0-1.54l2.38-0.7l0-10.36l-2.38-0.56l0-1.54z"/><path fill="#" d=""/></svg>
